<?xml version="1.0" encoding="utf-8"?>
<!-- Generator: Adobe Illustrator 15.0.0, SVG Export Plug-In . SVG Version: 6.00 Build 0)  -->
<!DOCTYPE svg PUBLIC "-//W3C//DTD SVG 1.1//EN" "http://www.w3.org/Graphics/SVG/1.1/DTD/svg11.dtd">
<svg version="1.1" id="图层_1" xmlns="http://www.w3.org/2000/svg" xmlns:xlink="http://www.w3.org/1999/xlink" x="0px" y="0px"
	 width="128px" height="128px" viewBox="0 0 128 128" enable-background="new 0 0 128 128" xml:space="preserve">
<g>
	<linearGradient id="SVGID_1_" gradientUnits="userSpaceOnUse" x1="1.8369" y1="62.291" x2="126.1621" y2="62.291">
		<stop  offset="0" style="stop-color:#D61419"/>
		<stop  offset="1" style="stop-color:#BD151C"/>
	</linearGradient>
	<path fill="url(#SVGID_1_)" d="M33.76,109.265c-2.01-7.722,2.125-14.992,4.842-22.225c3.893-10.393,8.32-20.673,12.461-31.006
		c2.367-5.893,4.762-11.774,7.142-17.672H85.69c0,0-21.943,53.225-21.946,53.236c-3.09,7.478-3.797,19.485,8.065,22.326
		c9.631,2.318,24.342-1.191,32.67-5.281c2.468-1.207,5.031-2.898,7.212-4.797c9.02-10.786,14.471-24.677,14.471-39.845
		c0-22.137-11.61-41.52-29.021-52.528c0.105,0.734,0.229,1.473,0.229,2.242c0,8.464-6.871,15.327-15.333,15.327
		c-8.467,0-15.34-6.863-15.34-15.327c0-4.518,1.988-8.531,5.087-11.338c-2.548-0.319-5.138-0.54-7.781-0.54
		c-34.337,0-62.165,27.828-62.165,62.165c0,27.267,17.559,50.364,41.966,58.745C38.294,119.71,35.116,114.434,33.76,109.265z"/>
	<path fill="#FFFFFF" d="M111.691,103.846c-2.181,1.898-4.744,3.59-7.212,4.797c-8.328,4.09-23.039,7.6-32.67,5.281
		c-11.863-2.841-11.155-14.849-8.065-22.326c0.003-0.011,21.946-53.236,21.946-53.236H58.205c-2.38,5.898-4.775,11.78-7.142,17.672
		c-4.141,10.333-8.568,20.613-12.461,31.006c-2.717,7.232-6.853,14.503-4.842,22.225c1.356,5.169,4.534,10.445,10.043,13.481
		c6.337,2.181,13.115,3.42,20.199,3.42C83.169,126.166,100.294,117.476,111.691,103.846z"/>
	<path fill="#FFFFFF" d="M66.696,13.714c0,8.464,6.873,15.327,15.34,15.327c8.462,0,15.333-6.863,15.333-15.327
		c0-0.769-0.123-1.508-0.229-2.242c-7.515-4.763-16.12-7.938-25.357-9.097C68.685,5.184,66.696,9.196,66.696,13.714z"/>
</g>
</svg>
